<mxfile host="Electron" modified="2024-11-28T10:48:08.861Z" agent="Mozilla/5.0 (X11; Linux x86_64) AppleWebKit/537.36 (KHTML, like Gecko) draw.io/24.6.1 Chrome/124.0.6367.207 Electron/30.0.6 Safari/537.36" etag="iE7i8uHIOm_EMcky34Bw" version="24.6.1" type="device">
  <diagram name="Page-1" id="JFPJkxZZSjxiJD6og031">
    <mxGraphModel dx="1122" dy="1322" grid="1" gridSize="10" guides="1" tooltips="1" connect="1" arrows="1" fold="1" page="1" pageScale="1" pageWidth="850" pageHeight="1100" math="0" shadow="0">
      <root>
        <mxCell id="0" />
        <mxCell id="1" parent="0" />
        <mxCell id="5J0PExLWSg5odvyhJzei-1" value="Include Module :&lt;div&gt;IoT and Embedded&lt;/div&gt;&lt;div&gt;Systems&lt;/div&gt;" style="ellipse;whiteSpace=wrap;html=1;fontSize=9;" vertex="1" parent="1">
          <mxGeometry x="920" y="490" width="120" height="60" as="geometry" />
        </mxCell>
        <mxCell id="5J0PExLWSg5odvyhJzei-2" value="Monitor Sensor Data&lt;div&gt;in Real Time&lt;/div&gt;" style="ellipse;whiteSpace=wrap;html=1;fontSize=9;" vertex="1" parent="1">
          <mxGeometry x="1310" y="340" width="120" height="60" as="geometry" />
        </mxCell>
        <mxCell id="5J0PExLWSg5odvyhJzei-3" value="Manage Communication&lt;div&gt;Between IoT Devices&lt;/div&gt;" style="ellipse;whiteSpace=wrap;html=1;fontSize=9;" vertex="1" parent="1">
          <mxGeometry x="1090" y="640" width="120" height="60" as="geometry" />
        </mxCell>
        <mxCell id="5J0PExLWSg5odvyhJzei-4" value="Control Electric Boards&lt;div&gt;via Command Methods&lt;/div&gt;" style="ellipse;whiteSpace=wrap;html=1;fontSize=9;" vertex="1" parent="1">
          <mxGeometry x="1090" y="490" width="120" height="60" as="geometry" />
        </mxCell>
        <mxCell id="5J0PExLWSg5odvyhJzei-5" value="Control&lt;div&gt;Microcontroller&lt;/div&gt;" style="ellipse;whiteSpace=wrap;html=1;fontSize=9;" vertex="1" parent="1">
          <mxGeometry x="1220" y="430" width="90" height="40" as="geometry" />
        </mxCell>
        <mxCell id="5J0PExLWSg5odvyhJzei-6" value="" style="endArrow=block;endSize=16;endFill=0;html=1;rounded=0;exitX=1;exitY=0;exitDx=0;exitDy=0;entryX=0;entryY=1;entryDx=0;entryDy=0;" edge="1" parent="1" source="5J0PExLWSg5odvyhJzei-4" target="5J0PExLWSg5odvyhJzei-5">
          <mxGeometry width="160" relative="1" as="geometry">
            <mxPoint x="1270" y="537.5" as="sourcePoint" />
            <mxPoint x="1310" y="502.5" as="targetPoint" />
          </mxGeometry>
        </mxCell>
        <mxCell id="5J0PExLWSg5odvyhJzei-7" value="&lt;div&gt;Control&lt;/div&gt;&lt;div&gt;Actuators&lt;/div&gt;" style="ellipse;whiteSpace=wrap;html=1;fontSize=9;" vertex="1" parent="1">
          <mxGeometry x="1280" y="470" width="90" height="40" as="geometry" />
        </mxCell>
        <mxCell id="5J0PExLWSg5odvyhJzei-8" value="Control&lt;div&gt;Sensors&lt;/div&gt;" style="ellipse;whiteSpace=wrap;html=1;fontSize=9;" vertex="1" parent="1">
          <mxGeometry x="1280" y="530" width="90" height="40" as="geometry" />
        </mxCell>
        <mxCell id="5J0PExLWSg5odvyhJzei-9" value="" style="endArrow=block;endSize=16;endFill=0;html=1;rounded=0;exitX=1;exitY=0.5;exitDx=0;exitDy=0;entryX=0;entryY=0.5;entryDx=0;entryDy=0;" edge="1" parent="1" source="5J0PExLWSg5odvyhJzei-4" target="5J0PExLWSg5odvyhJzei-7">
          <mxGeometry width="160" relative="1" as="geometry">
            <mxPoint x="1203" y="509" as="sourcePoint" />
            <mxPoint x="1243" y="474" as="targetPoint" />
          </mxGeometry>
        </mxCell>
        <mxCell id="5J0PExLWSg5odvyhJzei-10" value="" style="endArrow=block;endSize=16;endFill=0;html=1;rounded=0;entryX=0;entryY=0.5;entryDx=0;entryDy=0;" edge="1" parent="1" target="5J0PExLWSg5odvyhJzei-8">
          <mxGeometry width="160" relative="1" as="geometry">
            <mxPoint x="1210" y="520" as="sourcePoint" />
            <mxPoint x="1290" y="500" as="targetPoint" />
          </mxGeometry>
        </mxCell>
        <mxCell id="5J0PExLWSg5odvyhJzei-11" value="QSSL Pre-Integrated&lt;div&gt;Linux Kernel&lt;/div&gt;" style="ellipse;whiteSpace=wrap;html=1;fontSize=9;" vertex="1" parent="1">
          <mxGeometry x="1090" y="340" width="120" height="60" as="geometry" />
        </mxCell>
        <mxCell id="5J0PExLWSg5odvyhJzei-12" value="" style="html=1;verticalAlign=bottom;labelBackgroundColor=none;endArrow=open;endFill=0;dashed=1;rounded=0;entryX=0.5;entryY=0;entryDx=0;entryDy=0;exitX=0.5;exitY=1;exitDx=0;exitDy=0;" edge="1" parent="1" source="5J0PExLWSg5odvyhJzei-11" target="5J0PExLWSg5odvyhJzei-4">
          <mxGeometry x="0.1429" width="160" relative="1" as="geometry">
            <mxPoint x="1149.74" y="400" as="sourcePoint" />
            <mxPoint x="1149.74" y="490" as="targetPoint" />
            <mxPoint as="offset" />
          </mxGeometry>
        </mxCell>
        <mxCell id="5J0PExLWSg5odvyhJzei-13" value="&amp;lt;&amp;lt;include&amp;gt;&amp;gt;" style="edgeLabel;html=1;align=center;verticalAlign=middle;resizable=0;points=[];" vertex="1" connectable="0" parent="5J0PExLWSg5odvyhJzei-12">
          <mxGeometry x="-0.1918" y="-2" relative="1" as="geometry">
            <mxPoint x="2" y="4" as="offset" />
          </mxGeometry>
        </mxCell>
        <mxCell id="5J0PExLWSg5odvyhJzei-14" value="&amp;lt;&amp;lt;extend&amp;gt;&amp;gt;" style="html=1;verticalAlign=bottom;labelBackgroundColor=none;endArrow=open;endFill=0;dashed=1;rounded=0;exitX=1;exitY=0.5;exitDx=0;exitDy=0;entryX=0;entryY=0.5;entryDx=0;entryDy=0;" edge="1" parent="1" source="5J0PExLWSg5odvyhJzei-11" target="5J0PExLWSg5odvyhJzei-2">
          <mxGeometry y="-20" width="160" relative="1" as="geometry">
            <mxPoint x="1225" y="359.71000000000004" as="sourcePoint" />
            <mxPoint x="1295" y="359.71000000000004" as="targetPoint" />
            <mxPoint as="offset" />
          </mxGeometry>
        </mxCell>
        <mxCell id="5J0PExLWSg5odvyhJzei-15" value="GUI Monitor" style="ellipse;whiteSpace=wrap;html=1;fontSize=9;" vertex="1" parent="1">
          <mxGeometry x="1480" y="320" width="90" height="40" as="geometry" />
        </mxCell>
        <mxCell id="5J0PExLWSg5odvyhJzei-16" value="Logger Monitor" style="ellipse;whiteSpace=wrap;html=1;fontSize=9;" vertex="1" parent="1">
          <mxGeometry x="1480" y="380" width="90" height="40" as="geometry" />
        </mxCell>
        <mxCell id="5J0PExLWSg5odvyhJzei-17" value="" style="endArrow=block;endSize=16;endFill=0;html=1;rounded=0;exitX=1;exitY=0.5;exitDx=0;exitDy=0;entryX=0;entryY=0.5;entryDx=0;entryDy=0;" edge="1" parent="1" source="5J0PExLWSg5odvyhJzei-2" target="5J0PExLWSg5odvyhJzei-15">
          <mxGeometry width="160" relative="1" as="geometry">
            <mxPoint x="1430" y="370" as="sourcePoint" />
            <mxPoint x="1480" y="340" as="targetPoint" />
          </mxGeometry>
        </mxCell>
        <mxCell id="5J0PExLWSg5odvyhJzei-18" value="" style="endArrow=block;endSize=16;endFill=0;html=1;rounded=0;exitX=1;exitY=0.5;exitDx=0;exitDy=0;entryX=0;entryY=0.5;entryDx=0;entryDy=0;" edge="1" parent="1" source="5J0PExLWSg5odvyhJzei-2" target="5J0PExLWSg5odvyhJzei-16">
          <mxGeometry width="160" relative="1" as="geometry">
            <mxPoint x="1435" y="370" as="sourcePoint" />
            <mxPoint x="1485" y="400" as="targetPoint" />
          </mxGeometry>
        </mxCell>
        <mxCell id="5J0PExLWSg5odvyhJzei-19" value="Analyse Heat" style="ellipse;whiteSpace=wrap;html=1;fontSize=9;" vertex="1" parent="1">
          <mxGeometry x="1480" y="500" width="90" height="40" as="geometry" />
        </mxCell>
        <mxCell id="5J0PExLWSg5odvyhJzei-20" value="&amp;lt;&amp;lt;extend&amp;gt;&amp;gt;" style="html=1;verticalAlign=bottom;labelBackgroundColor=none;endArrow=open;endFill=0;dashed=1;rounded=0;exitX=0.5;exitY=1;exitDx=0;exitDy=0;entryX=0.5;entryY=0;entryDx=0;entryDy=0;" edge="1" parent="1" source="5J0PExLWSg5odvyhJzei-16" target="5J0PExLWSg5odvyhJzei-19">
          <mxGeometry x="0.25" width="160" relative="1" as="geometry">
            <mxPoint x="1450" y="514" as="sourcePoint" />
            <mxPoint x="1526" y="534" as="targetPoint" />
            <mxPoint as="offset" />
          </mxGeometry>
        </mxCell>
        <mxCell id="5J0PExLWSg5odvyhJzei-21" value="" style="html=1;verticalAlign=bottom;labelBackgroundColor=none;endArrow=open;endFill=0;dashed=1;rounded=0;entryX=0.5;entryY=0;entryDx=0;entryDy=0;exitX=0.5;exitY=1;exitDx=0;exitDy=0;" edge="1" parent="1" source="5J0PExLWSg5odvyhJzei-4" target="5J0PExLWSg5odvyhJzei-3">
          <mxGeometry x="0.1429" width="160" relative="1" as="geometry">
            <mxPoint x="1149.74" y="550" as="sourcePoint" />
            <mxPoint x="1149.74" y="640" as="targetPoint" />
            <mxPoint as="offset" />
          </mxGeometry>
        </mxCell>
        <mxCell id="5J0PExLWSg5odvyhJzei-22" value="&amp;lt;&amp;lt;include&amp;gt;&amp;gt;" style="edgeLabel;html=1;align=center;verticalAlign=middle;resizable=0;points=[];" vertex="1" connectable="0" parent="5J0PExLWSg5odvyhJzei-21">
          <mxGeometry x="-0.1918" y="-2" relative="1" as="geometry">
            <mxPoint x="2" y="4" as="offset" />
          </mxGeometry>
        </mxCell>
        <mxCell id="5J0PExLWSg5odvyhJzei-23" value="ExoNET" style="ellipse;whiteSpace=wrap;html=1;fontSize=9;" vertex="1" parent="1">
          <mxGeometry x="1280" y="620" width="90" height="40" as="geometry" />
        </mxCell>
        <mxCell id="5J0PExLWSg5odvyhJzei-24" value="Protocol&lt;div&gt;Handling&lt;/div&gt;" style="ellipse;whiteSpace=wrap;html=1;fontSize=9;" vertex="1" parent="1">
          <mxGeometry x="1280" y="680" width="90" height="40" as="geometry" />
        </mxCell>
        <mxCell id="5J0PExLWSg5odvyhJzei-25" value="" style="endArrow=block;endSize=16;endFill=0;html=1;rounded=0;exitX=1;exitY=0.5;exitDx=0;exitDy=0;entryX=0;entryY=0.5;entryDx=0;entryDy=0;" edge="1" parent="1" source="5J0PExLWSg5odvyhJzei-3" target="5J0PExLWSg5odvyhJzei-23">
          <mxGeometry width="160" relative="1" as="geometry">
            <mxPoint x="1210" y="670" as="sourcePoint" />
            <mxPoint x="1243" y="624" as="targetPoint" />
          </mxGeometry>
        </mxCell>
        <mxCell id="5J0PExLWSg5odvyhJzei-26" value="" style="endArrow=block;endSize=16;endFill=0;html=1;rounded=0;entryX=0;entryY=0.5;entryDx=0;entryDy=0;exitX=1;exitY=0.5;exitDx=0;exitDy=0;" edge="1" parent="1" source="5J0PExLWSg5odvyhJzei-3" target="5J0PExLWSg5odvyhJzei-24">
          <mxGeometry width="160" relative="1" as="geometry">
            <mxPoint x="1210" y="670" as="sourcePoint" />
            <mxPoint x="1290" y="650" as="targetPoint" />
          </mxGeometry>
        </mxCell>
        <mxCell id="5J0PExLWSg5odvyhJzei-27" value="" style="endArrow=open;endFill=1;endSize=12;html=1;rounded=0;exitX=1;exitY=0.5;exitDx=0;exitDy=0;entryX=0;entryY=0.5;entryDx=0;entryDy=0;" edge="1" parent="1" source="5J0PExLWSg5odvyhJzei-1" target="5J0PExLWSg5odvyhJzei-4">
          <mxGeometry width="160" relative="1" as="geometry">
            <mxPoint x="1040" y="519.76" as="sourcePoint" />
            <mxPoint x="1080" y="490" as="targetPoint" />
          </mxGeometry>
        </mxCell>
        <mxCell id="5J0PExLWSg5odvyhJzei-28" value="" style="endArrow=open;endFill=1;endSize=12;html=1;rounded=0;entryX=0;entryY=0.5;entryDx=0;entryDy=0;exitX=1;exitY=0.5;exitDx=0;exitDy=0;" edge="1" parent="1" source="5J0PExLWSg5odvyhJzei-1" target="5J0PExLWSg5odvyhJzei-11">
          <mxGeometry width="160" relative="1" as="geometry">
            <mxPoint x="1050" y="530" as="sourcePoint" />
            <mxPoint x="1100" y="530" as="targetPoint" />
          </mxGeometry>
        </mxCell>
        <mxCell id="5J0PExLWSg5odvyhJzei-29" value="" style="endArrow=open;endFill=1;endSize=12;html=1;rounded=0;entryX=0;entryY=0.5;entryDx=0;entryDy=0;exitX=1;exitY=0.5;exitDx=0;exitDy=0;" edge="1" parent="1" source="5J0PExLWSg5odvyhJzei-1" target="5J0PExLWSg5odvyhJzei-3">
          <mxGeometry width="160" relative="1" as="geometry">
            <mxPoint x="1050" y="530" as="sourcePoint" />
            <mxPoint x="1100" y="380" as="targetPoint" />
          </mxGeometry>
        </mxCell>
      </root>
    </mxGraphModel>
  </diagram>
</mxfile>
